PathFileType	4	(X/Y/Z)	Run_300 01
DataRate	CameraRate	NumFrames	NumMarkers	Units	OrigDataRate	OrigDataStartFrame	OrigNumFrames
120	120	8	42	mm	120	155	128
Frame#	Time	LASI			LPSI			RPSI			RTH1			RTH2			RTH3			LTH1			LTH2			LTH3			RTB1			RTB2			RTB3			LTB1			LTB2			RCAL			RTOE			RMT5			LCAL			LMT5			LACR			RACR			CLAV			C7			RUA1			RUA2			RUA3			RLEL			RMEL			LUA1			LUA2			LUA3			LLEL			LMEL			RFAsuperior			RFAradius			RFAulna			LFAsuperior			LFAradius			LFAulna			LTB3			LTOE			RASI			
		X1	Y1	Z1	X2	Y2	Z2	X3	Y3	Z3	X4	Y4	Z4	X5	Y5	Z5	X6	Y6	Z6	X7	Y7	Z7	X8	Y8	Z8	X9	Y9	Z9	X10	Y10	Z10	X11	Y11	Z11	X12	Y12	Z12	X13	Y13	Z13	X14	Y14	Z14	X15	Y15	Z15	X16	Y16	Z16	X17	Y17	Z17	X18	Y18	Z18	X19	Y19	Z19	X20	Y20	Z20	X21	Y21	Z21	X22	Y22	Z22	X23	Y23	Z23	X24	Y24	Z24	X25	Y25	Z25	X26	Y26	Z26	X27	Y27	Z27	X28	Y28	Z28	X29	Y29	Z29	X30	Y30	Z30	X31	Y31	Z31	X32	Y32	Z32	X33	Y33	Z33	X34	Y34	Z34	X35	Y35	Z35	X36	Y36	Z36	X37	Y37	Z37	X38	Y38	Z38	X39	Y39	Z39	X40	Y40	Z40	X41	Y41	Z41	X42	Y42	Z42	

152	1.425	764.923237	1021.271351	-501.573074	598.7569099999999	1060.761673	-411.743234	601.629138	1065.130049	-324.863686	797.048394	890.408926	-204.23159	906.547676	814.449494	-226.549146	893.864998	671.090881	-222.909917	684.519246	880.640479	-537.828748	697.114739	758.963968	-518.18084	576.1398349999999	656.401986	-508.058265	939.919947	474.183444	-281.897718	875.005018	427.944101	-233.300583	847.78383	320.581235	-305.217288	519.442694	416.440505	-442.378403	426.576121	350.553153	-495.641068	692.664059	246.056245	-328.756208	883.685162	139.241137	-312.556473	833.065302	131.977908	-227.357964	244.64527	231.995537	-429.35624	354.969882	70.62424799999999	-484.019519	791.692353	1478.23901	-558.889561	698.594476	1500.845442	-199.955769	830.1343859999999	1456.52182	-325.075067	712.078974	1540.244289	-391.486779	632.668186	1424.224596	-136.466715	626.9081660000001	1353.842479	-124.601082	523.022529	1375.539739	-123.642471	511.608394	1294.694848	-71.084039	475.842869	1277.792929	-152.569788	776.336081	1410.335117	-621.533541	709.487193	1349.956385	-634.684221	773.810987	1324.971166	-668.57831	762.534481	1226.523026	-723.122383	698.275724	1177.592395	-675.679997	583.9781850000001	1251.40679	-70.63661500000001	724.742873	1175.984493	-120.034663	679.133569	1124.206487	-116.994406	822.717591	1236.830779	-683.561787	903.900435	1248.459	-528.045873	925.344668	1190.973612	-551.894147	402.098866	265.217392	-425.012177	399.395092	82.728172	-403.008055	763.409402	1054.194564	-260.944972	
153	1.433333	766.82388	1024.994387	-498.9727	600.734726	1065.094356	-411.871453	604.4239710000001	1070.246727	-324.819147	796.925299	892.859456	-204.713459	905.870059	815.369329	-227.080939	890.06046	670.7076939999999	-225.895548	684.575241	883.948491	-537.5170440000001	695.608887	762.2393049999999	-519.199339	574.502617	660.232916	-507.908859	946.217388	473.033904	-282.601532	884.620861	422.220535	-234.299356	867.265815	312.0032	-306.339966	514.125897	420.361406	-443.712833	419.363322	357.68759	-497.263842	719.045372	222.608637	-331.167321	919.920813	136.563318	-312.216358	869.563329	124.683659	-227.202511	236.800291	248.448149	-432.593684	334.610896	76.170331	-485.990786	794.986764	1482.599135	-556.907158	698.117362	1503.654914	-199.78843	830.468993	1460.134339	-322.978988	713.137354	1543.476945	-390.688977	631.692728	1428.411912	-136.16676	625.67372	1358.055146	-123.837455	521.828484	1379.965935	-123.731264	509.516289	1299.63569	-70.954182	474.604995	1282.137464	-152.759928	779.875456	1416.074102	-620.367272	712.194577	1358.077084	-636.507233	776.738481	1330.827187	-668.661883	764.008259	1232.634851	-723.392759	697.239838	1185.002326	-677.4417529999999	581.94284	1256.778385	-69.18011300000001	723.439275	1181.242501	-116.642652	678.233338	1129.421492	-112.943733	823.519899	1242.328613	-682.884288	900.730248	1253.059895	-525.045107	921.905286	1195.336688	-548.822494	392.195763	272.52592	-427.378268	379.764649	87.90842000000001	-404.67771	764.251023	1057.555154	-258.966783	
154	1.441667	768.402419	1028.671598	-496.431962	602.458072	1069.085716	-412.152563	606.568751	1075.104298	-324.898131	795.80254	893.354655	-205.011938	904.523592	814.360599	-227.933748	885.535618	668.696185	-228.169795	684.826113	887.023563	-537.111215	695.295495	765.256631	-520.669812	574.771335	662.9174	-507.592907	950.899124	470.890036	-283.248239	892.7054910000001	415.850129	-235.139693	885.35879	303.69091	-307.061208	510.369111	423.277186	-444.658858	413.486526	364.304029	-498.321209	744.932744	200.396039	-332.288311	953.644802	135.862767	-312.835247	904.867984	119.349553	-227.534492	229.918933	265.359076	-435.169785	313.833406	83.280731	-487.316467	797.769517	1486.164791	-554.983209	698.0263189999999	1505.672076	-199.510635	830.978234	1462.898243	-320.999369	714.267515	1546.06521	-389.853235	631.194333	1431.759741	-135.701022	624.954416	1361.467309	-122.842271	521.103339	1383.554671	-123.510773	508.053806	1303.672896	-70.54678	473.888174	1285.606363	-152.595225	782.78224	1421.019279	-619.228189	714.581235	1365.42761	-638.103757	779.015355	1335.820006	-668.566509	764.70113	1237.932587	-723.688185	695.73835	1191.744883	-679.07629	580.523869	1261.303084	-67.53513599999999	722.7501099999999	1185.719685	-113.119952	677.880435	1133.902873	-108.946572	823.646429	1246.907602	-682.270973	897.362249	1256.817896	-522.517483	918.184259	1198.718093	-546.379113	382.899408	279.869696	-429.226963	360.130548	94.49798	-405.974733	764.652473	1060.016926	-257.473818	
155	1.45	769.597448	1032.082532	-494.013643	603.931653	1072.718706	-412.479075	607.572014	1079.368022	-325.059176	793.977128	892.084738	-205.053297	902.4410360000001	811.419565	-229.106051	880.186573	665.1806769999999	-229.876161	685.580241	889.74523	-536.657092	696.467881	767.7346700000001	-522.161592	577.065375	664.4807070000001	-507.377003	954.028321	467.952393	-283.829926	899.064949	409.064471	-235.933319	901.819149	295.926705	-307.342643	507.99682	425.441894	-445.286519	408.816891	370.58363	-498.930682	769.88399	180.106106	-332.442335	984.181767	136.818663	-314.462113	938.06332	115.973978	-228.47853	223.714466	282.551817	-436.982084	293.096546	92.373502	-487.920692	800.0755	1488.909047	-553.150828	698.338568	1506.889759	-199.03867	831.581012	1464.750549	-319.208698	715.47434	1547.960246	-388.885873	631.178802	1434.19332	-135.015	624.747776	1363.990693	-121.601908	520.866472	1386.238618	-123.001083	507.24105	1306.742698	-69.85153200000001	473.662058	1288.115688	-152.057236	785.0536990000001	1425.090358	-618.1318220000001	716.597806	1371.762585	-639.256304	780.625394	1339.967029	-668.2821709999999	764.610533	1242.344016	-724.020911	693.77218	1197.736598	-680.5328510000001	579.73076	1264.911486	-65.699562	722.794695	1189.424016	-109.309667	678.141918	1137.587137	-104.971581	823.064837	1250.467732	-681.637221	893.806358	1259.541166	-520.420166	914.197102	1201.007503	-544.340733	374.248645	287.546688	-430.541961	340.635794	102.521132	-406.76984	764.8323	1061.695533	-256.516913	
156	1.458333	770.4560729999999	1034.992481	-491.850656	605.213583	1075.852663	-412.687388	607.608156	1082.616477	-325.119695	791.820097	889.421544	-204.838499	899.523911	806.743063	-230.449433	873.966012	660.3761479999999	-231.237478	687.1160599999999	891.83942	-536.189092	699.2630820000001	769.35087	-523.159214	581.449281	664.774491	-507.587238	955.808479	464.528451	-284.374482	903.8085160000001	402.271589	-236.789233	916.385717	289.067091	-307.392668	506.926361	427.017943	-445.743615	405.255617	376.70596	-499.22153	793.310385	162.383136	-332.268807	1010.9528	139.050427	-316.771021	968.039908	114.329572	-230.043456	217.880856	299.912883	-437.972537	273.38894	103.866243	-488.042668	801.952849	1490.77943	-551.422272	699.035004	1507.319231	-198.318172	832.230425	1465.692666	-317.668579	716.732623	1549.106956	-387.674391	631.635189	1435.654578	-134.068565	625.039347	1365.54436	-120.144664	521.124509	1387.932204	-122.21768	507.078667	1308.767331	-68.86201	473.867616	1289.556109	-151.122703	786.733169	1428.231791	-617.0768440000001	718.183982	1376.86831	-639.7698360000001	781.556952	1343.299369	-667.951276	763.731117	1245.836697	-724.384513	691.315096	1202.897294	-681.76996	579.569808	1267.5134	-63.686581	723.593522	1192.295077	-105.231709	679.063688	1140.399592	-100.979199	821.808733	1252.980858	-681.068619	890.0644129999999	1260.98181	-518.685351	909.922235	1202.105676	-542.545775	366.339446	295.829723	-431.293941	321.81433	112.11436	-407.116982	764.95547	1062.61539	-255.808677	
157	1.466667	771.119786	1037.194806	-490.152486	606.370433	1078.251866	-412.648966	607.497312	1084.478131	-324.87884	789.633021	885.743819	-204.385599	895.685966	800.649119	-231.771255	867.091143	654.6217810000001	-232.40165	689.544709	892.9572460000001	-535.716649	703.61253	769.858321	-523.286536	587.823767	663.570174	-508.412612	956.461712	460.92464	-285.08044	907.357378	395.868984	-237.812641	928.6972490000001	283.364979	-307.710103	507.144551	428.081585	-446.155392	402.79297	382.824452	-499.294363	814.366219	147.589204	-332.435375	1033.420508	142.09543	-319.269549	993.6877480000001	113.905947	-232.145951	212.281992	317.442202	-438.194916	255.763868	117.859138	-488.030844	803.446583	1491.704299	-549.793177	700.06022	1506.964569	-197.329969	832.916933	1465.740715	-316.376914	717.990509	1549.47029	-386.171837	632.528083	1436.107648	-132.836861	625.8023889999999	1366.064917	-118.519508	521.860627	1388.546875	-121.161726	507.546178	1309.67301	-67.565128	474.51136	1289.816684	-149.772815	787.884079	1430.400468	-616.0511279999999	719.249007	1380.614656	-639.547784	781.7863599999999	1345.798466	-667.708673	762.058463	1248.4044	-724.752914	688.33549	1207.1422	-682.7514609999999	580.049259	1269.032624	-61.495359	725.093163	1194.240487	-101.011988	680.666124	1142.27934	-96.93111	819.98805	1254.455157	-680.821897	886.1754	1261.003271	-517.29445	905.3123900000001	1201.943829	-540.935596	359.349832	304.89957	-431.490778	304.455905	123.471076	-407.159548	765.0745449999999	1062.711423	-255.061342	
158	1.475	771.757612	1038.518922	-489.069357	607.428268	1079.63148	-412.321762	608.072773	1084.694266	-324.279355	787.56236	881.336033	-203.675752	890.939023	793.49554	-232.939496	860.114409	648.374575	-233.404053	692.783869	892.848459	-535.244903	709.259502	769.1916210000001	-522.512731	595.887068	660.781898	-509.815289	956.147395	457.306984	-286.280219	910.21063	390.056982	-239.089852	938.321361	278.777228	-308.836114	508.659088	428.673921	-446.587668	401.538133	389.052099	-499.231043	832.033603	135.640351	-333.269756	1051.097856	145.394788	-321.63585	1014.197258	114.010536	-234.647219	207.144836	335.238903	-437.808063	240.872272	133.970574	-488.068832	804.602664	1491.62511	-548.2583550000001	701.33	1505.805177	-196.090055	833.63923	1464.883136	-315.267249	719.182397	1549.041029	-384.45028	633.798593	1435.532374	-131.309802	627.004971	1365.522412	-116.750884	523.035542	1388.009035	-119.808885	508.615861	1309.40884	-65.92865399999999	475.669432	1288.817081	-147.98608	788.554651	1431.549965	-615.047816	719.657382	1382.973493	-638.620596	781.274602	1347.400248	-667.570748	759.597356	1250.046131	-725.086739	684.817709	1210.39114	-683.434577	581.183097	1269.435405	-59.091669	727.233129	1195.196501	-96.76276	682.953947	1143.196178	-92.798209	817.715642	1254.86922	-681.137383	882.219231	1259.681333	-516.311336	900.333568	1200.491286	-539.555484	353.557919	314.777361	-431.232596	289.331478	136.675904	-406.998075	765.145749	1061.887158	-254.202169	
159	1.483333	772.491211	1038.843496	-488.558316	608.350845	1079.704347	-411.760467	609.445344	1083.140167	-323.485575	785.610378	876.416605	-202.635152	885.544033	785.727069	-233.903239	853.7866289999999	642.130027	-234.245919	696.639903	891.504009	-534.8047350000001	715.832118	767.480079	-521.186242	605.177759	656.621038	-511.580283	954.971377	453.644412	-288.238925	912.62717	384.788429	-240.657914	944.899946	274.921886	-310.980652	511.463678	428.821289	-447.090436	401.684813	395.439343	-499.111658	845.397108	126.007312	-334.537539	1063.684455	148.330373	-323.935526	1029.313452	113.958279	-237.405262	203.084439	353.426736	-436.996291	228.817676	151.505306	-488.082867	805.465624	1490.527344	-546.823641	702.7531739999999	1503.795069	-194.644047	834.386065	1463.090922	-314.254695	720.245823	1547.804094	-382.67312	635.37626	1433.907723	-129.492672	628.620227	1363.920712	-114.805556	524.5992670000001	1386.265882	-118.105933	510.266691	1307.948007	-63.898283	477.400381	1286.517843	-145.727768	788.744816	1431.628288	-614.0752680000001	719.249673	1383.990625	-637.118598	779.976659	1348.040157	-667.444032	756.36558	1250.751602	-725.334924	680.763007	1212.589114	-683.760265	582.980397	1268.723353	-56.416975	729.985409	1195.162867	-92.525516	685.925732	1143.145869	-88.560563	814.988125	1254.140542	-681.966122	878.268038	1257.234229	-515.837132	895.006907	1197.747976	-538.519053	349.306126	325.302538	-430.709679	276.943189	151.563067	-406.652274	765.087094	1060.084385	-253.356349	
